<svg xmlns="http://www.w3.org/2000/svg" xmlns:xlink="http://www.w3.org/1999/xlink" version="1.1" x="0px" y="0px" viewBox="0 0 500 500" style="enable-background:new 0 0 500 500;" xml:space="preserve">
<g id="BACKGROUND">
	<g style="opacity:0.96;">
		<rect style="fill:#111827;" width="500" height="500"/>
	</g>
</g>
<g id="OBJECTS">
	<path style="fill:#CFE3F3;" d="M389.669,93.249H106.331c-30.835,0-55.831,24.997-55.831,55.831   c0,30.835,24.996,55.831,55.831,55.831h27.916l26.985,26.985l26.985-26.985h201.452c30.835,0,55.831-24.996,55.831-55.831   C445.5,118.245,420.503,93.249,389.669,93.249z"/>
	<path style="fill:#CFE3F3;" d="M109.665,270.582h283.337c30.835,0,55.831,24.997,55.831,55.831   c0,30.835-24.996,55.831-55.831,55.831h-27.916l-26.985,26.985l-26.985-26.985H109.665c-30.835,0-55.831-24.996-55.831-55.831   C53.833,295.579,78.83,270.582,109.665,270.582z"/>
	<path style="fill:#FE624A;" d="M394.432,84.396H105.567c-31.437,0-56.92,25.484-56.92,56.921c0,31.437,25.484,56.921,56.92,56.921   h28.46l27.511,27.512l27.512-27.512h205.382c31.436,0,56.921-25.484,56.921-56.921C451.353,109.881,425.869,84.396,394.432,84.396z   "/>
	<g>
		<g>
			<path style="fill:#FEC300;" d="M203.738,131.026l-8.843,4.649c-0.68,0.358-1.476-0.22-1.346-0.978l1.689-9.846     c0.052-0.301-0.048-0.608-0.267-0.821l-7.154-6.973c-0.55-0.537-0.247-1.471,0.514-1.582l9.886-1.437     c0.302-0.044,0.563-0.234,0.698-0.507l4.421-8.958c0.34-0.689,1.323-0.689,1.663,0l4.421,8.958     c0.135,0.274,0.396,0.464,0.698,0.507l9.886,1.437c0.761,0.11,1.064,1.045,0.514,1.582l-7.154,6.973     c-0.218,0.213-0.318,0.52-0.267,0.821l1.689,9.846c0.13,0.758-0.665,1.335-1.346,0.978l-8.843-4.649     C204.331,130.884,204.008,130.884,203.738,131.026z"/>
			<path style="fill:#FEE139;" d="M212.221,114.343l-2.1-0.305c-0.302-0.044-0.563-0.234-0.698-0.507l-4.421-8.958     c-0.34-0.689-1.323-0.689-1.663,0l-4.421,8.958c-0.135,0.274-0.396,0.463-0.698,0.507l-9.886,1.437     c-0.761,0.11-1.064,1.045-0.514,1.582l7.154,6.973c0.219,0.213,0.318,0.52,0.267,0.821l-1.099,6.41     C203.143,126.859,208.743,120.43,212.221,114.343z"/>
		</g>
		<g>
			<path style="fill:#FEC300;" d="M247.399,131.026l-8.842,4.649c-0.68,0.358-1.476-0.22-1.346-0.978l1.689-9.846     c0.052-0.301-0.048-0.608-0.267-0.821l-7.154-6.973c-0.55-0.537-0.247-1.471,0.514-1.582l9.886-1.437     c0.302-0.044,0.563-0.234,0.698-0.507l4.421-8.958c0.34-0.689,1.323-0.689,1.663,0l4.421,8.958     c0.135,0.274,0.396,0.464,0.698,0.507l9.886,1.437c0.761,0.11,1.064,1.045,0.514,1.582l-7.154,6.973     c-0.219,0.213-0.318,0.52-0.267,0.821l1.689,9.846c0.13,0.758-0.665,1.335-1.346,0.978l-8.842-4.649     C247.991,130.884,247.669,130.884,247.399,131.026z"/>
			<path style="fill:#FEE139;" d="M255.881,114.343l-2.1-0.305c-0.302-0.044-0.563-0.234-0.698-0.507l-4.421-8.958     c-0.34-0.689-1.323-0.689-1.663,0l-4.421,8.958c-0.135,0.274-0.396,0.463-0.698,0.507l-9.886,1.437     c-0.761,0.11-1.064,1.045-0.514,1.582l7.154,6.973c0.219,0.213,0.318,0.52,0.267,0.821l-1.099,6.41     C246.803,126.859,252.403,120.43,255.881,114.343z"/>
		</g>
		<g>
			<path style="fill:#FEC300;" d="M291.059,131.026l-8.842,4.649c-0.68,0.358-1.475-0.22-1.346-0.978l1.689-9.846     c0.052-0.301-0.048-0.608-0.267-0.821l-7.154-6.973c-0.55-0.537-0.247-1.471,0.514-1.582l9.886-1.437     c0.302-0.044,0.563-0.234,0.698-0.507l4.421-8.958c0.34-0.689,1.323-0.689,1.663,0l4.421,8.958     c0.135,0.274,0.396,0.464,0.698,0.507l9.886,1.437c0.761,0.11,1.064,1.045,0.514,1.582l-7.154,6.973     c-0.219,0.213-0.318,0.52-0.267,0.821l1.689,9.846c0.13,0.758-0.665,1.335-1.346,0.978l-8.843-4.649     C291.652,130.884,291.329,130.884,291.059,131.026z"/>
			<path style="fill:#FEE139;" d="M299.542,114.343l-2.1-0.305c-0.302-0.044-0.563-0.234-0.698-0.507l-4.421-8.958     c-0.34-0.689-1.323-0.689-1.663,0l-4.421,8.958c-0.135,0.274-0.396,0.463-0.698,0.507l-9.886,1.437     c-0.761,0.11-1.064,1.045-0.514,1.582l7.154,6.973c0.219,0.213,0.318,0.52,0.267,0.821l-1.099,6.41     C290.463,126.859,296.063,120.43,299.542,114.343z"/>
		</g>
		<g>
			<path style="fill:#FEC300;" d="M334.719,131.026l-8.843,4.649c-0.68,0.358-1.475-0.22-1.346-0.978l1.689-9.846     c0.052-0.301-0.048-0.608-0.267-0.821l-7.154-6.973c-0.55-0.537-0.247-1.471,0.514-1.582l9.886-1.437     c0.302-0.044,0.563-0.234,0.698-0.507l4.421-8.958c0.34-0.689,1.323-0.689,1.663,0l4.421,8.958     c0.135,0.274,0.396,0.464,0.698,0.507l9.886,1.437c0.761,0.11,1.064,1.045,0.514,1.582l-7.154,6.973     c-0.218,0.213-0.318,0.52-0.267,0.821l1.689,9.846c0.13,0.758-0.665,1.335-1.346,0.978l-8.842-4.649     C335.312,130.884,334.989,130.884,334.719,131.026z"/>
			<path style="fill:#FEE139;" d="M343.202,114.343l-2.1-0.305c-0.302-0.044-0.563-0.234-0.698-0.507l-4.421-8.958     c-0.34-0.689-1.323-0.689-1.663,0l-4.421,8.958c-0.135,0.274-0.396,0.463-0.698,0.507l-9.886,1.437     c-0.761,0.11-1.064,1.045-0.514,1.582l7.154,6.973c0.219,0.213,0.318,0.52,0.267,0.821l-1.099,6.41     C334.123,126.859,339.724,120.43,343.202,114.343z"/>
		</g>
		<g>
			<path style="fill:#FEC300;" d="M378.379,131.026l-8.842,4.649c-0.68,0.358-1.476-0.22-1.346-0.978l1.689-9.846     c0.052-0.301-0.048-0.608-0.267-0.821l-7.154-6.973c-0.55-0.537-0.247-1.471,0.514-1.582l9.886-1.437     c0.302-0.044,0.563-0.234,0.698-0.507l4.421-8.958c0.34-0.689,1.323-0.689,1.663,0l4.421,8.958     c0.135,0.274,0.396,0.464,0.698,0.507l9.886,1.437c0.761,0.11,1.064,1.045,0.514,1.582l-7.154,6.973     c-0.219,0.213-0.318,0.52-0.267,0.821l1.689,9.846c0.13,0.758-0.665,1.335-1.346,0.978l-8.842-4.649     C378.972,130.884,378.649,130.884,378.379,131.026z"/>
			<path style="fill:#FEE139;" d="M386.862,114.343l-2.1-0.305c-0.302-0.044-0.563-0.234-0.698-0.507l-4.421-8.958     c-0.34-0.689-1.323-0.689-1.663,0l-4.421,8.958c-0.135,0.274-0.396,0.463-0.698,0.507l-9.886,1.437     c-0.761,0.11-1.064,1.045-0.514,1.582l7.154,6.973c0.219,0.213,0.318,0.52,0.267,0.821l-1.099,6.41     C377.784,126.859,383.384,120.43,386.862,114.343z"/>
		</g>
	</g>
	<g>
		<path style="fill:#FFFFFF;" d="M392.674,158.221h-200.6c-1.74,0-3.15-1.411-3.15-3.151l0,0c0-1.74,1.41-3.151,3.15-3.151h200.6    c1.74,0,3.151,1.411,3.151,3.151l0,0C395.824,156.81,394.414,158.221,392.674,158.221z"/>
		<path style="fill:#FFFFFF;" d="M285.039,173.979h-92.966c-1.74,0-3.15-1.411-3.15-3.151l0,0c0-1.74,1.41-3.151,3.15-3.151h92.966    c1.74,0,3.151,1.411,3.151,3.151l0,0C288.19,172.568,286.779,173.979,285.039,173.979z"/>
	</g>
	<g>
		<circle style="fill:#FFFFFF;" cx="119.82" cy="143.25" r="37.5"/>
		<g>
			<g>
				<defs>
					<circle id="SVGID_1_" cx="119.82" cy="143.25" r="37.5"/>
				</defs>
				<clipPath id="SVGID_00000092438820223230861590000011079318643622782130_">
					<use xlink:href="#SVGID_1_" style="overflow:visible;"/>
				</clipPath>
				<g style="clip-path:url(#SVGID_00000092438820223230861590000011079318643622782130_);">
					<path style="fill:#6661FF;" d="M138.477,205.004v-19.527c0-10.647-8.631-19.279-19.279-19.279h0       c-10.647,0-19.279,8.631-19.279,19.279v19.527H138.477z"/>
					<path style="fill:#40307D;" d="M137.731,142.877c0,0,2.985-11.567,1.119-15.485c-1.866-3.918-3.172-2.052-5.224-6.903       c-2.052-4.851-8.769-10.634-18.097-10.448c-9.328,0.187-13.06,7.09-12.313,11.754c0.746,4.664-2.239,4.664-2.425,9.515       c-0.187,4.851,1.679,12.687,4.478,14.739C108.066,148.101,130.828,154.071,137.731,142.877z"/>
					<path style="fill:#F48E69;" d="M119.54,176.086L119.54,176.086c-3.864,0-6.996-3.132-6.996-6.996v-12.034h13.993v12.034       C126.537,172.954,123.404,176.086,119.54,176.086z"/>
					<g>
						<path style="fill:#F48E69;" d="M105.834,141.944c0,0-1.866-6.903-6.157-5.037c-4.291,1.866,0.933,15.672,4.664,12.5        C108.073,146.235,105.834,141.944,105.834,141.944z"/>
						<path style="fill:#F48E69;" d="M133.806,141.944c0,0,1.866-6.903,6.157-5.037c4.291,1.866-0.933,15.672-4.664,12.5        C131.568,146.235,133.806,141.944,133.806,141.944z"/>
					</g>
					<path style="fill:#FFC39A;" d="M119.82,165.078L119.82,165.078c-8.552,0-15.485-6.933-15.485-15.485v-14.925       c0-8.552,6.933-15.485,15.485-15.485l0,0c8.552,0,15.485,6.933,15.485,15.485v14.925       C135.305,158.145,128.372,165.078,119.82,165.078z"/>
					<path style="fill:#40307D;" d="M105.828,125.34c0,0,1.679,4.104,11.94,3.358c10.261-0.746,13.619,1.119,14.552,6.343       c0.933,5.224,3.918,4.664,4.478,1.493c0.56-3.172-2.052-13.06-2.052-13.06l-11.381-8.582l-14.739,1.119L105.828,125.34z"/>
				</g>
			</g>
			<g>
				<g>
					<path style="fill:#40307D;" d="M128.809,138.835c-0.143,0-0.287-0.041-0.415-0.126l0,0c-0.017-0.011-1.597-1.039-3.142-0.365       c-0.377,0.165-0.818-0.007-0.982-0.384c-0.165-0.378,0.007-0.818,0.385-0.983c2.304-1.011,4.481,0.432,4.573,0.494       c0.341,0.231,0.431,0.695,0.2,1.036C129.283,138.72,129.048,138.835,128.809,138.835z"/>
					<path style="fill:#40307D;" d="M110.155,138.833c-0.241,0-0.477-0.116-0.62-0.33c-0.229-0.341-0.141-0.802,0.2-1.033       c0.091-0.062,2.263-1.505,4.572-0.494c0.378,0.165,0.55,0.605,0.385,0.983c-0.165,0.377-0.606,0.55-0.982,0.384       c-1.545-0.675-3.125,0.354-3.14,0.365C110.442,138.793,110.297,138.833,110.155,138.833z"/>
				</g>
				<g>
					<circle style="fill:#40307D;" cx="112.531" cy="142.877" r="1.057"/>
					<circle style="fill:#40307D;" cx="127.084" cy="142.877" r="1.057"/>
				</g>
				<path style="fill:#F48E69;" d="M119.497,151.832L119.497,151.832c-0.979,0-1.772-0.794-1.772-1.772v-4.509      c0-0.979,0.793-1.772,1.772-1.772l0,0c0.979,0,1.772,0.794,1.772,1.772v4.509C121.269,151.039,120.475,151.832,119.497,151.832z      "/>
				<g>
					<path style="fill:#FE926E;" d="M113.894,148.785c0,1.683-1.364,3.047-3.047,3.047c-1.683,0-3.047-1.364-3.047-3.047       c0-1.683,1.364-3.047,3.047-3.047C112.529,145.738,113.894,147.102,113.894,148.785z"/>
					<path style="fill:#FE926E;" d="M131.841,148.785c0,1.683-1.364,3.047-3.047,3.047c-1.683,0-3.047-1.364-3.047-3.047       c0-1.683,1.364-3.047,3.047-3.047C130.477,145.738,131.841,147.102,131.841,148.785z"/>
				</g>
				<path style="fill:#FE624A;" d="M124.441,153.884c0,2.473-2.005,4.478-4.478,4.478c-2.473,0-4.478-2.005-4.478-4.478H124.441z"/>
			</g>
		</g>
	</g>
	<g>
		<path style="fill:#00BAFC;" d="M105.567,260.396h288.865c31.437,0,56.921,25.484,56.921,56.921    c0,31.437-25.484,56.921-56.921,56.921h-28.46l-27.511,27.512l-27.512-27.512H105.567c-31.436,0-56.92-25.484-56.92-56.921    C48.647,285.881,74.131,260.396,105.567,260.396z"/>
		<g>
			<g>
				<path style="fill:#FEC300;" d="M296.262,307.026l8.843,4.649c0.68,0.358,1.475-0.22,1.346-0.978l-1.689-9.846      c-0.052-0.301,0.048-0.608,0.267-0.821l7.154-6.973c0.55-0.536,0.247-1.471-0.514-1.582l-9.886-1.437      c-0.302-0.044-0.563-0.234-0.698-0.507l-4.421-8.958c-0.34-0.689-1.323-0.689-1.663,0l-4.421,8.958      c-0.135,0.274-0.396,0.464-0.698,0.507l-9.886,1.437c-0.761,0.111-1.064,1.045-0.514,1.582l7.154,6.973      c0.219,0.213,0.318,0.52,0.267,0.821l-1.689,9.846c-0.13,0.758,0.665,1.335,1.346,0.978l8.842-4.649      C295.669,306.884,295.991,306.884,296.262,307.026z"/>
				<path style="fill:#FEE139;" d="M287.779,290.343l2.1-0.305c0.302-0.044,0.563-0.234,0.698-0.507l4.421-8.958      c0.34-0.689,1.323-0.689,1.663,0l4.421,8.958c0.135,0.274,0.396,0.463,0.698,0.507l9.886,1.437      c0.761,0.111,1.064,1.045,0.514,1.582l-7.154,6.973c-0.219,0.213-0.318,0.52-0.267,0.821l1.099,6.41      C296.857,302.859,291.257,296.43,287.779,290.343z"/>
			</g>
			<g>
				<path style="fill:#FEC300;" d="M252.601,307.026l8.842,4.649c0.68,0.358,1.476-0.22,1.346-0.978l-1.689-9.846      c-0.052-0.301,0.048-0.608,0.267-0.821l7.154-6.973c0.55-0.536,0.247-1.471-0.514-1.582l-9.886-1.437      c-0.302-0.044-0.563-0.234-0.698-0.507l-4.421-8.958c-0.34-0.689-1.323-0.689-1.663,0l-4.421,8.958      c-0.135,0.274-0.396,0.464-0.698,0.507l-9.886,1.437c-0.761,0.111-1.064,1.045-0.514,1.582l7.154,6.973      c0.219,0.213,0.318,0.52,0.267,0.821l-1.689,9.846c-0.13,0.758,0.665,1.335,1.346,0.978l8.843-4.649      C252.008,306.884,252.331,306.884,252.601,307.026z"/>
				<path style="fill:#FEE139;" d="M244.119,290.343l2.1-0.305c0.302-0.044,0.563-0.234,0.698-0.507l4.421-8.958      c0.34-0.689,1.323-0.689,1.663,0l4.421,8.958c0.135,0.274,0.396,0.463,0.698,0.507l9.886,1.437      c0.761,0.111,1.064,1.045,0.514,1.582l-7.154,6.973c-0.219,0.213-0.318,0.52-0.267,0.821l1.099,6.41      C253.197,302.859,247.597,296.43,244.119,290.343z"/>
			</g>
			<g>
				<path style="fill:#FEC300;" d="M208.941,307.026l8.842,4.649c0.68,0.358,1.475-0.22,1.346-0.978l-1.689-9.846      c-0.052-0.301,0.048-0.608,0.267-0.821l7.154-6.973c0.55-0.536,0.247-1.471-0.514-1.582l-9.886-1.437      c-0.302-0.044-0.563-0.234-0.698-0.507l-4.421-8.958c-0.34-0.689-1.323-0.689-1.663,0l-4.421,8.958      c-0.135,0.274-0.396,0.464-0.698,0.507l-9.886,1.437c-0.761,0.111-1.064,1.045-0.514,1.582l7.154,6.973      c0.219,0.213,0.318,0.52,0.267,0.821l-1.689,9.846c-0.13,0.758,0.665,1.335,1.346,0.978l8.843-4.649      C208.348,306.884,208.671,306.884,208.941,307.026z"/>
				<path style="fill:#FEE139;" d="M200.458,290.343l2.1-0.305c0.302-0.044,0.563-0.234,0.698-0.507l4.421-8.958      c0.34-0.689,1.323-0.689,1.663,0l4.421,8.958c0.135,0.274,0.396,0.463,0.698,0.507l9.886,1.437      c0.761,0.111,1.064,1.045,0.514,1.582l-7.154,6.973c-0.219,0.213-0.318,0.52-0.267,0.821l1.099,6.41      C209.537,302.859,203.937,296.43,200.458,290.343z"/>
			</g>
			<g>
				<path style="fill:#FEC300;" d="M165.281,307.026l8.843,4.649c0.68,0.358,1.476-0.22,1.346-0.978l-1.689-9.846      c-0.052-0.301,0.048-0.608,0.267-0.821l7.154-6.973c0.55-0.536,0.247-1.471-0.514-1.582l-9.886-1.437      c-0.302-0.044-0.563-0.234-0.698-0.507l-4.421-8.958c-0.34-0.689-1.323-0.689-1.663,0l-4.421,8.958      c-0.135,0.274-0.396,0.464-0.698,0.507l-9.886,1.437c-0.761,0.111-1.064,1.045-0.514,1.582l7.154,6.973      c0.218,0.213,0.318,0.52,0.267,0.821l-1.689,9.846c-0.13,0.758,0.665,1.335,1.346,0.978l8.842-4.649      C164.688,306.884,165.011,306.884,165.281,307.026z"/>
				<path style="fill:#FEE139;" d="M156.798,290.343l2.1-0.305c0.302-0.044,0.563-0.234,0.698-0.507l4.421-8.958      c0.34-0.689,1.323-0.689,1.663,0l4.421,8.958c0.135,0.274,0.396,0.463,0.698,0.507l9.886,1.437      c0.761,0.111,1.064,1.045,0.514,1.582l-7.154,6.973c-0.219,0.213-0.318,0.52-0.267,0.821l1.099,6.41      C165.877,302.859,160.276,296.43,156.798,290.343z"/>
			</g>
			<g>
				<path style="fill:#FEC300;" d="M121.621,307.026l8.843,4.649c0.68,0.358,1.476-0.22,1.346-0.978l-1.689-9.846      c-0.052-0.301,0.048-0.608,0.267-0.821l7.154-6.973c0.551-0.536,0.247-1.471-0.514-1.582l-9.886-1.437      c-0.302-0.044-0.563-0.234-0.698-0.507l-4.421-8.958c-0.34-0.689-1.323-0.689-1.663,0l-4.421,8.958      c-0.135,0.274-0.396,0.464-0.698,0.507l-9.886,1.437c-0.761,0.111-1.064,1.045-0.514,1.582l7.154,6.973      c0.219,0.213,0.318,0.52,0.267,0.821l-1.689,9.846c-0.13,0.758,0.665,1.335,1.346,0.978l8.842-4.649      C121.028,306.884,121.35,306.884,121.621,307.026z"/>
				<path style="fill:#FEE139;" d="M113.138,290.343l2.1-0.305c0.302-0.044,0.563-0.234,0.698-0.507l4.421-8.958      c0.34-0.689,1.323-0.689,1.663,0l4.421,8.958c0.135,0.274,0.396,0.463,0.698,0.507l9.886,1.437      c0.761,0.111,1.064,1.045,0.514,1.582l-7.154,6.973c-0.219,0.213-0.318,0.52-0.267,0.821l1.099,6.41      C122.216,302.859,116.616,296.43,113.138,290.343z"/>
			</g>
		</g>
		<g>
			<path style="fill:#FFFFFF;" d="M107.326,334.221h200.6c1.74,0,3.151-1.411,3.151-3.151l0,0c0-1.74-1.411-3.151-3.151-3.151     h-200.6c-1.74,0-3.151,1.411-3.151,3.151l0,0C104.176,332.81,105.586,334.221,107.326,334.221z"/>
			<path style="fill:#FFFFFF;" d="M214.961,349.979h92.966c1.74,0,3.151-1.411,3.151-3.151l0,0c0-1.74-1.411-3.151-3.151-3.151     h-92.966c-1.74,0-3.151,1.411-3.151,3.151l0,0C211.81,348.568,213.221,349.979,214.961,349.979z"/>
		</g>
		<g>
			<g>
				<defs>
					<circle id="SVGID_00000074416188478577710510000012807233093779778483_" cx="378.67" cy="318.481" r="37.5"/>
				</defs>
				<use xlink:href="#SVGID_00000074416188478577710510000012807233093779778483_" style="overflow:visible;fill:#FFFFFF;"/>
				<clipPath id="SVGID_00000096740194077810282710000002830106806243290267_">
					<use xlink:href="#SVGID_00000074416188478577710510000012807233093779778483_" style="overflow:visible;"/>
				</clipPath>
				<g style="clip-path:url(#SVGID_00000096740194077810282710000002830106806243290267_);">
					<path style="fill:#FE624A;" d="M375.84,298.642c0,0-10.697-0.497-16.667,14.428c-5.97,14.428-6.716,21.393-1.99,26.368       c4.726,4.975,9.702,6.716,18.408,2.736c0,0,8.955,6.468,19.403,0.746c10.448-5.721,9.702-21.144,4.726-28.109       C394.745,307.846,389.024,297.896,375.84,298.642z"/>
					<path style="fill:#FEC300;" d="M397.482,380.234v-19.527c0-10.647-8.631-19.279-19.279-19.279l0,0       c-10.647,0-19.279,8.631-19.279,19.279v19.527H397.482z"/>
					<path style="fill:#F48E69;" d="M378.856,351.316L378.856,351.316c-3.864,0-6.996-3.132-6.996-6.996v-12.034h13.993v12.034       C385.852,348.184,382.72,351.316,378.856,351.316z"/>
					<g>
						<path style="fill:#F48E69;" d="M364.112,323.708c0,0-1.32-4.886-4.358-3.565c-3.037,1.32,0.66,11.093,3.301,8.848        C365.697,326.745,364.112,323.708,364.112,323.708z"/>
						<path style="fill:#F48E69;" d="M394.16,323.708c0,0,1.32-4.886,4.358-3.565c3.037,1.32-0.66,11.093-3.301,8.848        C392.575,326.745,394.16,323.708,394.16,323.708z"/>
					</g>
					<path style="fill:#FFC39A;" d="M378.825,339.376L378.825,339.376c-8.93,0-16.169-7.239-16.169-16.169v-0.995       c0-8.93,7.239-16.169,16.169-16.169l0,0c8.93,0,16.169,7.239,16.169,16.169v0.995       C394.994,332.137,387.755,339.376,378.825,339.376z"/>
					<g>
						<g>
							<path style="fill:#40307D;" d="M387.795,316.055c-0.143,0-0.287-0.041-0.415-0.126l0,0c-0.017-0.011-1.598-1.039-3.142-0.365         c-0.377,0.165-0.818-0.007-0.982-0.384c-0.165-0.378,0.007-0.818,0.385-0.983c2.304-1.011,4.481,0.432,4.573,0.494         c0.341,0.231,0.431,0.695,0.2,1.036C388.27,315.941,388.034,316.055,387.795,316.055z"/>
							<path style="fill:#40307D;" d="M369.141,316.054c-0.241,0-0.477-0.115-0.62-0.33c-0.229-0.341-0.141-0.802,0.2-1.033         c0.091-0.062,2.263-1.505,4.572-0.494c0.378,0.165,0.55,0.605,0.385,0.983c-0.165,0.377-0.606,0.55-0.982,0.384         c-1.545-0.675-3.125,0.354-3.14,0.365C369.428,316.013,369.283,316.054,369.141,316.054z"/>
						</g>
						<g>
							<circle style="fill:#40307D;" cx="371.518" cy="320.098" r="1.057"/>
							<path style="fill:#40307D;" d="M387.127,320.098c0,0.584-0.473,1.057-1.057,1.057c-0.584,0-1.057-0.473-1.057-1.057         s0.473-1.057,1.057-1.057C386.654,319.04,387.127,319.514,387.127,320.098z"/>
						</g>
						<path style="fill:#F48E69;" d="M378.483,329.053L378.483,329.053c-0.979,0-1.772-0.793-1.772-1.772v-4.509        c0-0.979,0.794-1.772,1.772-1.772l0,0c0.979,0,1.772,0.794,1.772,1.772v4.509        C380.255,328.259,379.462,329.053,378.483,329.053z"/>
						<g>
							<path style="fill:#FE926E;" d="M372.88,326.006c0,1.683-1.364,3.047-3.047,3.047c-1.683,0-3.047-1.364-3.047-3.047         c0-1.683,1.364-3.047,3.047-3.047C371.516,322.958,372.88,324.323,372.88,326.006z"/>
							<path style="fill:#FE926E;" d="M390.827,326.006c0,1.683-1.364,3.047-3.047,3.047c-1.683,0-3.047-1.364-3.047-3.047         c0-1.683,1.364-3.047,3.047-3.047C389.463,322.958,390.827,324.323,390.827,326.006z"/>
						</g>
						<path style="fill:#FE624A;" d="M383.427,331.105c0,2.473-2.005,4.478-4.478,4.478s-4.478-2.005-4.478-4.478H383.427z"/>
					</g>
					<path style="fill:#FE624A;" d="M388.278,307.1c0,0-2.736,7.711-15.92,11.691c-13.184,3.98-14.925,8.707-14.925,8.707       s-0.497-9.453,7.214-18.408c7.712-8.955,17.164-8.209,17.164-8.209L388.278,307.1z"/>
				</g>
			</g>
		</g>
	</g>
</g>
 
</svg>